<svg width="240" height="267" viewBox="0 0 240 267" fill="none" xmlns="http://www.w3.org/2000/svg">
<path fill-rule="evenodd" clip-rule="evenodd" d="M237.969 58.1199C168.331 76.284 106.561 108.419 56.9547 162.626C69.4662 176.402 83.775 180.628 100.754 183.852C137.221 145.596 181.923 121.297 232.259 106.546C244.627 102.916 238.387 69.4299 237.969 58.1199Z" fill="#FF7324"/>
<path fill-rule="evenodd" clip-rule="evenodd" d="M54.5035 60.3423C2.38617 90.9409 -15.4728 158.733 14.614 211.728C30.1498 239.089 55.4372 257.166 83.4303 264.036C167.897 284.728 238.485 193.114 235.499 112.728C187.509 127.22 145.8 150.942 111.675 185.803C211.933 203.374 121.567 275.268 57.3366 231.12C11.2647 199.452 5.88849 140.034 32.0682 95.5783C48.1521 68.2625 70.6671 57.8372 97.822 46.0573C82.9969 47.5999 68.2419 52.2729 54.5035 60.3423Z" fill="#FF7324"/>
<path fill-rule="evenodd" clip-rule="evenodd" d="M237.618 1.00075C145.086 30.0503 45.0931 56.3388 39.3281 117.471C38.047 126.555 39.9305 136.468 46.1479 147.415C48.1397 150.918 50.1729 154.052 52.2571 156.875C99.7789 102.133 160.504 69.6353 232.647 50.9333C245.123 47.6991 238.039 12.3075 237.618 1.00075Z" fill="#FF7324"/>
</svg>
